<svg width="24" height="24" viewBox="0 0 24 24" fill="none" xmlns="http://www.w3.org/2000/svg">
<path d="M0.879998 14.0901L4.75 18.0001C4.84296 18.0938 4.95356 18.1682 5.07542 18.219C5.19728 18.2698 5.32799 18.2959 5.46 18.2959C5.59201 18.2959 5.72272 18.2698 5.84457 18.219C5.96643 18.1682 6.07704 18.0938 6.17 18.0001C6.35625 17.8127 6.46079 17.5593 6.46079 17.2951C6.46079 17.0309 6.35625 16.7775 6.17 16.5901L2.61 13.0001L23 13.0001C23.2652 13.0001 23.5196 12.8947 23.7071 12.7072C23.8946 12.5197 24 12.2653 24 12.0001C24 11.7349 23.8946 11.4805 23.7071 11.293C23.5196 11.1055 23.2652 11.0001 23 11.0001L2.55 11.0001L6.17 7.3901C6.26373 7.29713 6.33812 7.18653 6.38889 7.06467C6.43966 6.94282 6.4658 6.81211 6.4658 6.6801C6.4658 6.54809 6.43966 6.41738 6.38889 6.29552C6.33812 6.17366 6.26373 6.06306 6.17 5.9701C6.07704 5.87637 5.96643 5.80197 5.84458 5.7512C5.72272 5.70044 5.59201 5.6743 5.46 5.6743C5.32799 5.6743 5.19728 5.70044 5.07542 5.7512C4.95356 5.80197 4.84296 5.87637 4.75 5.9701L0.879998 9.8501C0.318196 10.4126 0.00263849 11.1751 0.00263842 11.9701C0.00263835 12.7651 0.318196 13.5276 0.879998 14.0901Z" fill="white"/>
</svg>
