<svg width="24" height="24" viewBox="0 0 24 24" fill="none" xmlns="http://www.w3.org/2000/svg">
<g clip-path="url(#clip0_2_11835)">
<path d="M1.00111 4.75073H3.73683C4.27678 6.73737 6.32497 7.91016 8.31161 7.37022C9.58756 7.02342 10.5843 6.02668 10.9311 4.75073H22.9989C23.5511 4.75073 23.9988 4.30307 23.9988 3.75084C23.9988 3.19862 23.5511 2.75096 22.9989 2.75096H10.9311C10.3912 0.764267 8.34297 -0.408523 6.35632 0.131424C5.08037 0.478217 4.08363 1.47496 3.73683 2.75091H1.00111C0.448879 2.75091 0.0012207 3.19857 0.0012207 3.7508C0.0012207 4.30302 0.448879 4.75073 1.00111 4.75073Z" fill="white"/>
<path d="M22.9989 11.0001H20.2632C19.7243 9.01373 17.6772 7.84029 15.6909 8.37911C14.4139 8.72553 13.4163 9.72307 13.0699 11.0001H1.00111C0.448879 11.0001 0.0012207 11.4478 0.0012207 12C0.0012207 12.5522 0.448879 12.9999 1.00111 12.9999H13.0699C13.6088 14.9862 15.6558 16.1597 17.6422 15.6209C18.9192 15.2744 19.9168 14.2769 20.2632 12.9999H22.9989C23.5511 12.9999 23.9988 12.5522 23.9988 12C23.9988 11.4478 23.5511 11.0001 22.9989 11.0001Z" fill="white"/>
<path d="M22.9989 19.2493H10.9311C10.3912 17.2626 8.34297 16.0898 6.35632 16.6298C5.08037 16.9766 4.08363 17.9733 3.73683 19.2493H1.00111C0.448879 19.2493 0.0012207 19.6969 0.0012207 20.2491C0.0012207 20.8014 0.448879 21.249 1.00111 21.249H3.73683C4.27678 23.2357 6.32497 24.4085 8.31161 23.8685C9.58756 23.5217 10.5843 22.525 10.9311 21.249H22.9989C23.5511 21.249 23.9988 20.8014 23.9988 20.2491C23.9988 19.6969 23.5511 19.2493 22.9989 19.2493Z" fill="white"/>
</g>
<defs>
<clipPath id="clip0_2_11835">
<rect width="24" height="24" fill="white"/>
</clipPath>
</defs>
</svg>
